{
  "accessors": [
    {
      "bufferView": 0,
      "byteOffset": 0,
      "componentType": 5126,
      "normalized": false,
      "count": 24,
      "type": "VEC3",
      "max": [
        0.45995989441871643,
        -0.12552113831043243,
        -0.012674212455749512
      ],
      "min": [
        -0.4599530100822449,
        -1.0455068349838257,
        -0.01767408847808838
      ]
    },
    {
      "bufferView": 1,
      "byteOffset": 0,
      "componentType": 5126,
      "normalized": false,
      "count": 24,
      "type": "VEC3"
    },
    {
      "bufferView": 2,
      "byteOffset": 0,
      "componentType": 5126,
      "normalized": false,
      "count": 24,
      "type": "VEC2"
    },
    {
      "bufferView": 3,
      "byteOffset": 0,
      "componentType": 5123,
      "normalized": false,
      "count": 36,
      "type": "SCALAR"
    },
    {
      "bufferView": 4,
      "byteOffset": 0,
      "componentType": 5126,
      "normalized": false,
      "count": 4,
      "type": "VEC3",
      "max": [
        0.45995989441871643,
        -0.12552113831043243,
        -0.00967419147491455
      ],
      "min": [
        -0.4599530100822449,
        -1.0455068349838257,
        -0.00967419147491455
      ]
    },
    {
      "bufferView": 5,
      "byteOffset": 0,
      "componentType": 5126,
      "normalized": false,
      "count": 4,
      "type": "VEC3"
    },
    {
      "bufferView": 6,
      "byteOffset": 0,
      "componentType": 5126,
      "normalized": false,
      "count": 4,
      "type": "VEC2"
    },
    {
      "bufferView": 7,
      "byteOffset": 0,
      "componentType": 5123,
      "normalized": false,
      "count": 6,
      "type": "SCALAR"
    },
    {
      "bufferView": 8,
      "byteOffset": 0,
      "componentType": 5126,
      "normalized": false,
      "count": 24,
      "type": "VEC3",
      "max": [
        0.2998543977737427,
        0.2998907268047333,
        0
      ],
      "min": [
        -0.2998543977737427,
        -0.29989075660705566,
        -0.0018117902800440788
      ]
    },
    {
      "bufferView": 9,
      "byteOffset": 0,
      "componentType": 5126,
      "normalized": false,
      "count": 24,
      "type": "VEC3"
    },
    {
      "bufferView": 10,
      "byteOffset": 0,
      "componentType": 5126,
      "normalized": false,
      "count": 24,
      "type": "VEC2"
    },
    {
      "bufferView": 11,
      "byteOffset": 0,
      "componentType": 5123,
      "normalized": false,
      "count": 36,
      "type": "SCALAR"
    },
    {
      "bufferView": 12,
      "byteOffset": 0,
      "componentType": 5126,
      "normalized": false,
      "count": 30,
      "type": "VEC3",
      "max": [
        0.4999598562717438,
        -1.0455936193466187,
        0.017325758934020996
      ],
      "min": [
        0.45995989441871643,
        -1.085593581199646,
        -0.012674212455749512
      ]
    },
    {
      "bufferView": 13,
      "byteOffset": 0,
      "componentType": 5126,
      "normalized": false,
      "count": 30,
      "type": "VEC3"
    },
    {
      "bufferView": 14,
      "byteOffset": 0,
      "componentType": 5126,
      "normalized": false,
      "count": 30,
      "type": "VEC2"
    },
    {
      "bufferView": 15,
      "byteOffset": 0,
      "componentType": 5123,
      "normalized": false,
      "count": 36,
      "type": "SCALAR"
    },
    {
      "bufferView": 16,
      "byteOffset": 0,
      "componentType": 5126,
      "normalized": false,
      "count": 26,
      "type": "VEC3",
      "max": [
        0.45995989441871643,
        -1.0454670190811157,
        0.017325758934020996
      ],
      "min": [
        -0.4599529504776001,
        -1.085466980934143,
        -0.012674212455749512
      ]
    },
    {
      "bufferView": 17,
      "byteOffset": 0,
      "componentType": 5126,
      "normalized": false,
      "count": 26,
      "type": "VEC3"
    },
    {
      "bufferView": 18,
      "byteOffset": 0,
      "componentType": 5126,
      "normalized": false,
      "count": 26,
      "type": "VEC2"
    },
    {
      "bufferView": 19,
      "byteOffset": 0,
      "componentType": 5123,
      "normalized": false,
      "count": 36,
      "type": "SCALAR"
    },
    {
      "bufferView": 20,
      "byteOffset": 0,
      "componentType": 5126,
      "normalized": false,
      "count": 30,
      "type": "VEC3",
      "max": [
        -0.4599529504776001,
        -1.0454670190811157,
        0.017325758934020996
      ],
      "min": [
        -0.49995291233062744,
        -1.085466980934143,
        -0.012674212455749512
      ]
    },
    {
      "bufferView": 21,
      "byteOffset": 0,
      "componentType": 5126,
      "normalized": false,
      "count": 30,
      "type": "VEC3"
    },
    {
      "bufferView": 22,
      "byteOffset": 0,
      "componentType": 5126,
      "normalized": false,
      "count": 30,
      "type": "VEC2"
    },
    {
      "bufferView": 23,
      "byteOffset": 0,
      "componentType": 5126,
      "normalized": false,
      "count": 28,
      "type": "VEC3",
      "max": [
        -0.4599529504776001,
        -0.1255178600549698,
        0.017325758934020996
      ],
      "min": [
        -0.49995291233062744,
        -1.0455068349838257,
        -0.012674212455749512
      ]
    },
    {
      "bufferView": 24,
      "byteOffset": 0,
      "componentType": 5126,
      "normalized": false,
      "count": 28,
      "type": "VEC3"
    },
    {
      "bufferView": 25,
      "byteOffset": 0,
      "componentType": 5126,
      "normalized": false,
      "count": 28,
      "type": "VEC2"
    },
    {
      "bufferView": 26,
      "byteOffset": 0,
      "componentType": 5123,
      "normalized": false,
      "count": 36,
      "type": "SCALAR"
    },
    {
      "bufferView": 27,
      "byteOffset": 0,
      "componentType": 5126,
      "normalized": false,
      "count": 30,
      "type": "VEC3",
      "max": [
        0.4999598264694214,
        -1.045593500137329,
        0.017325758934020996
      ],
      "min": [
        0.45995986461639404,
        -1.0855934619903564,
        -0.012674212455749512
      ]
    },
    {
      "bufferView": 28,
      "byteOffset": 0,
      "componentType": 5126,
      "normalized": false,
      "count": 30,
      "type": "VEC3"
    },
    {
      "bufferView": 29,
      "byteOffset": 0,
      "componentType": 5126,
      "normalized": false,
      "count": 30,
      "type": "VEC2"
    },
    {
      "bufferView": 30,
      "byteOffset": 0,
      "componentType": 5126,
      "normalized": false,
      "count": 26,
      "type": "VEC3",
      "max": [
        0.45995986461639404,
        -1.0454668998718262,
        0.017325758934020996
      ],
      "min": [
        -0.4599529802799225,
        -1.0854668617248535,
        -0.012674212455749512
      ]
    },
    {
      "bufferView": 31,
      "byteOffset": 0,
      "componentType": 5126,
      "normalized": false,
      "count": 26,
      "type": "VEC3"
    },
    {
      "bufferView": 32,
      "byteOffset": 0,
      "componentType": 5126,
      "normalized": false,
      "count": 26,
      "type": "VEC2"
    },
    {
      "bufferView": 33,
      "byteOffset": 0,
      "componentType": 5126,
      "normalized": false,
      "count": 24,
      "type": "VEC3",
      "max": [
        -0.4599529802799225,
        -1.0454668998718262,
        0.017325758934020996
      ],
      "min": [
        -0.49995294213294983,
        -1.0854668617248535,
        -0.012674212455749512
      ]
    },
    {
      "bufferView": 34,
      "byteOffset": 0,
      "componentType": 5126,
      "normalized": false,
      "count": 24,
      "type": "VEC3"
    },
    {
      "bufferView": 35,
      "byteOffset": 0,
      "componentType": 5126,
      "normalized": false,
      "count": 24,
      "type": "VEC2"
    },
    {
      "bufferView": 36,
      "byteOffset": 0,
      "componentType": 5126,
      "normalized": false,
      "count": 28,
      "type": "VEC3",
      "max": [
        0.4999598562717438,
        -0.12552113831043243,
        0.017325758934020996
      ],
      "min": [
        0.45995989441871643,
        -1.0455068349838257,
        -0.012674212455749512
      ]
    },
    {
      "bufferView": 37,
      "byteOffset": 0,
      "componentType": 5126,
      "normalized": false,
      "count": 28,
      "type": "VEC3"
    },
    {
      "bufferView": 38,
      "byteOffset": 0,
      "componentType": 5126,
      "normalized": false,
      "count": 28,
      "type": "VEC2"
    }
  ],
  "asset": {
    "generator": "pygltflib@v1.16.0",
    "version": "2.0"
  },
  "bufferViews": [
    {
      "buffer": 0,
      "byteOffset": 0,
      "byteLength": 288
    },
    {
      "buffer": 0,
      "byteOffset": 288,
      "byteLength": 288
    },
    {
      "buffer": 0,
      "byteOffset": 576,
      "byteLength": 192
    },
    {
      "buffer": 0,
      "byteOffset": 768,
      "byteLength": 72
    },
    {
      "buffer": 0,
      "byteOffset": 840,
      "byteLength": 48
    },
    {
      "buffer": 0,
      "byteOffset": 888,
      "byteLength": 48
    },
    {
      "buffer": 0,
      "byteOffset": 936,
      "byteLength": 32
    },
    {
      "buffer": 0,
      "byteOffset": 968,
      "byteLength": 12
    },
    {
      "buffer": 0,
      "byteOffset": 980,
      "byteLength": 288
    },
    {
      "buffer": 0,
      "byteOffset": 1268,
      "byteLength": 288
    },
    {
      "buffer": 0,
      "byteOffset": 1556,
      "byteLength": 192
    },
    {
      "buffer": 0,
      "byteOffset": 1748,
      "byteLength": 72
    },
    {
      "buffer": 0,
      "byteOffset": 1820,
      "byteLength": 360
    },
    {
      "buffer": 0,
      "byteOffset": 2180,
      "byteLength": 360
    },
    {
      "buffer": 0,
      "byteOffset": 2540,
      "byteLength": 240
    },
    {
      "buffer": 0,
      "byteOffset": 2780,
      "byteLength": 72
    },
    {
      "buffer": 0,
      "byteOffset": 2852,
      "byteLength": 312
    },
    {
      "buffer": 0,
      "byteOffset": 3164,
      "byteLength": 312
    },
    {
      "buffer": 0,
      "byteOffset": 3476,
      "byteLength": 208
    },
    {
      "buffer": 0,
      "byteOffset": 3684,
      "byteLength": 72
    },
    {
      "buffer": 0,
      "byteOffset": 3756,
      "byteLength": 360
    },
    {
      "buffer": 0,
      "byteOffset": 4116,
      "byteLength": 360
    },
    {
      "buffer": 0,
      "byteOffset": 4476,
      "byteLength": 240
    },
    {
      "buffer": 0,
      "byteOffset": 4716,
      "byteLength": 336
    },
    {
      "buffer": 0,
      "byteOffset": 5052,
      "byteLength": 336
    },
    {
      "buffer": 0,
      "byteOffset": 5388,
      "byteLength": 224
    },
    {
      "buffer": 0,
      "byteOffset": 5612,
      "byteLength": 72
    },
    {
      "buffer": 0,
      "byteOffset": 5684,
      "byteLength": 360
    },
    {
      "buffer": 0,
      "byteOffset": 6044,
      "byteLength": 360
    },
    {
      "buffer": 0,
      "byteOffset": 6404,
      "byteLength": 240
    },
    {
      "buffer": 0,
      "byteOffset": 6644,
      "byteLength": 312
    },
    {
      "buffer": 0,
      "byteOffset": 6956,
      "byteLength": 312
    },
    {
      "buffer": 0,
      "byteOffset": 7268,
      "byteLength": 208
    },
    {
      "buffer": 0,
      "byteOffset": 7476,
      "byteLength": 288
    },
    {
      "buffer": 0,
      "byteOffset": 7764,
      "byteLength": 288
    },
    {
      "buffer": 0,
      "byteOffset": 8052,
      "byteLength": 192
    },
    {
      "buffer": 0,
      "byteOffset": 8244,
      "byteLength": 336
    },
    {
      "buffer": 0,
      "byteOffset": 8580,
      "byteLength": 336
    },
    {
      "buffer": 0,
      "byteOffset": 8916,
      "byteLength": 224
    }
  ],
  "buffers": [
    {
      "uri": "data:application/octet-stream;base64,",
      "byteLength": 9140
    }
  ],
  "images": [
    {
      "uri": "data:image/jpeg;base64,",
      "name": "Image_0"
    },
    {
      "uri": "data:image/jpeg;base64,",
      "name": "PlasterWhite_seamless"
    },
    {
      "uri": "data:image/jpeg;base64,",
      "name": "Image_2"
    },
    {
      "uri": "data:image/jpeg;base64,",
      "name": "hardwood-normal"
    },
    {
      "uri": "data:image/jpeg;base64,",
      "name": "hardwood"
    },
    {
      "uri": "data:image/jpeg;base64,",
      "name": "hardwood-height"
    }
  ],
  "materials": [
    {
      "pbrMetallicRoughness": {
        "baseColorFactor": [
          1.0,
          1.0,
          1.0,
          1.0
        ],
        "metallicFactor": 0.10000000149011612,
        "roughnessFactor": 0.8999999761581421,
        "baseColorTexture": {
          "index": 1,
          "texCoord": 0
        }
      },
      "normalTexture": {
        "index": 0,
        "texCoord": 0,
        "scale": 1.0
      },
      "emissiveFactor": [
        0.0,
        0.0,
        0.0
      ],
      "alphaMode": "OPAQUE",
      "alphaCutoff": 0.5,
      "doubleSided": false,
      "name": "Mounting Board"
    },
    {
      "pbrMetallicRoughness": {
        "baseColorFactor": [
          0.03310476616024971,
          0.03310476616024971,
          0.03310476616024971,
          0.10000000149011612
        ],
        "metallicFactor": 1.0,
        "roughnessFactor": 0.0
      },
      "emissiveFactor": [
        0.0,
        0.0,
        0.0
      ],
      "alphaMode": "BLEND",
      "alphaCutoff": 0.5,
      "doubleSided": true,
      "name": "glass"
    },
    {
      "pbrMetallicRoughness": {
        "baseColorFactor": [
          1.0,
          1.0,
          1.0,
          1.0
        ],
        "metallicFactor": 0.0,
        "roughnessFactor": 0.8999999761581421,
        "baseColorTexture": {
          "index": 2,
          "texCoord": 0
        }
      },
      "emissiveFactor": [
        0.0,
        0.0,
        0.0
      ],
      "alphaMode": "OPAQUE",
      "alphaCutoff": 0.5,
      "doubleSided": false,
      "name": "hub_cb"
    },
    {
      "pbrMetallicRoughness": {
        "baseColorFactor": [
          1.0,
          1.0,
          1.0,
          1.0
        ],
        "metallicFactor": 1.0,
        "roughnessFactor": 0.8999999761581421,
        "baseColorTexture": {
          "index": 4,
          "texCoord": 0
        },
        "metallicRoughnessTexture": {
          "index": 5,
          "texCoord": 0
        }
      },
      "normalTexture": {
        "index": 3,
        "texCoord": 0,
        "scale": 0.10000000149011612
      },
      "emissiveFactor": [
        0.0,
        0.0,
        0.0
      ],
      "alphaMode": "OPAQUE",
      "alphaCutoff": 0.5,
      "doubleSided": false,
      "name": "Photo Frame"
    }
  ],
  "meshes": [
    {
      "primitives": [
        {
          "attributes": {
            "POSITION": 0,
            "NORMAL": 1,
            "TEXCOORD_0": 2
          },
          "indices": 3,
          "mode": 4,
          "material": 0
        }
      ],
      "name": "Mesh_2"
    },
    {
      "primitives": [
        {
          "attributes": {
            "POSITION": 4,
            "NORMAL": 5,
            "TEXCOORD_0": 6
          },
          "indices": 7,
          "mode": 4,
          "material": 1
        }
      ],
      "name": "Mesh_1"
    },
    {
      "primitives": [
        {
          "attributes": {
            "POSITION": 8,
            "NORMAL": 9,
            "TEXCOORD_0": 10
          },
          "indices": 11,
          "mode": 4,
          "material": 2
        }
      ],
      "name": "Mesh_0"
    },
    {
      "primitives": [
        {
          "attributes": {
            "POSITION": 12,
            "NORMAL": 13,
            "TEXCOORD_0": 14
          },
          "indices": 15,
          "mode": 4,
          "material": 3
        }
      ],
      "name": "Mesh_10"
    },
    {
      "primitives": [
        {
          "attributes": {
            "POSITION": 16,
            "NORMAL": 17,
            "TEXCOORD_0": 18
          },
          "indices": 19,
          "mode": 4,
          "material": 3
        }
      ],
      "name": "Mesh_3"
    },
    {
      "primitives": [
        {
          "attributes": {
            "POSITION": 20,
            "NORMAL": 21,
            "TEXCOORD_0": 22
          },
          "indices": 15,
          "mode": 4,
          "material": 3
        }
      ],
      "name": "Mesh_9"
    },
    {
      "primitives": [
        {
          "attributes": {
            "POSITION": 23,
            "NORMAL": 24,
            "TEXCOORD_0": 25
          },
          "indices": 26,
          "mode": 4,
          "material": 3
        }
      ],
      "name": "Mesh_7"
    },
    {
      "primitives": [
        {
          "attributes": {
            "POSITION": 27,
            "NORMAL": 28,
            "TEXCOORD_0": 29
          },
          "indices": 15,
          "mode": 4,
          "material": 3
        }
      ],
      "name": "Mesh_10.002"
    },
    {
      "primitives": [
        {
          "attributes": {
            "POSITION": 30,
            "NORMAL": 31,
            "TEXCOORD_0": 32
          },
          "indices": 19,
          "mode": 4,
          "material": 3
        }
      ],
      "name": "Mesh_3.001"
    },
    {
      "primitives": [
        {
          "attributes": {
            "POSITION": 33,
            "NORMAL": 34,
            "TEXCOORD_0": 35
          },
          "indices": 3,
          "mode": 4,
          "material": 3
        }
      ],
      "name": "Mesh_9.002"
    },
    {
      "primitives": [
        {
          "attributes": {
            "POSITION": 36,
            "NORMAL": 37,
            "TEXCOORD_0": 38
          },
          "indices": 26,
          "mode": 4,
          "material": 3
        }
      ],
      "name": "Mesh_5"
    }
  ],
  "nodes": [
    {
      "mesh": 0,
      "translation": [
        0,
        0,
        0
      ],
      "scale": [
        1.3043478260869565,
        1,
        1
      ],
      "name": "Backing"
    },
    {
      "mesh": 1,
      "translation": [
        0,
        0,
        0
      ],
      "scale": [
        1.3043478260869565,
        1,
        1
      ],
      "name": "Glass_primitive1"
    },
    {
      "children": [
        1
      ],
      "name": "Glass"
    },
    {
      "mesh": 2,
      "translation": [
        3.427267074584961e-06,
        -0.5855139493942261,
        -0.010934308171272278
      ],
      "scale": [
        1.8675731023152669,
        1.4005100727081299,
        1
      ],
      "name": "photo"
    },
    {
      "children": [
        0,
        2,
        3
      ],
      "name": "Base"
    },
    {
      "mesh": 3,
      "translation": [
        0.14,
        0,
        0
      ],
      "name": "A"
    },
    {
      "mesh": 4,
      "translation": [
        0,
        0,
        0
      ],
      "scale": [
        1.3043478260869565,
        1,
        1
      ],
      "name": "B"
    },
    {
      "mesh": 5,
      "translation": [
        -0.14,
        0,
        0
      ],
      "name": "C"
    },
    {
      "mesh": 6,
      "translation": [
        -0.14,
        0,
        0
      ],
      "scale": [
        1,
        1,
        1
      ],
      "name": "D"
    },
    {
      "mesh": 7,
      "rotation": [
        0,
        0,
        -1,
        0
      ],
      "translation": [
        -0.14,
        -1.1711146831512451,
        0
      ],
      "name": "E"
    },
    {
      "mesh": 8,
      "rotation": [
        0,
        0,
        -1,
        4.371138828673793e-08
      ],
      "translation": [
        0,
        -1.1709880828857422,
        0
      ],
      "scale": [
        1.3043478260869565,
        1,
        1
      ],
      "name": "F"
    },
    {
      "mesh": 9,
      "rotation": [
        0,
        0,
        -1,
        0
      ],
      "translation": [
        0.14,
        -1.1709880828857422,
        0
      ],
      "name": "G"
    },
    {
      "mesh": 10,
      "translation": [
        0.14,
        0,
        0
      ],
      "scale": [
        1,
        1,
        1
      ],
      "name": "H"
    },
    {
      "children": [
        5,
        6,
        7,
        8,
        9,
        10,
        11,
        12
      ],
      "name": "Frame"
    },
    {
      "rotation": [
        0,
        0,
        -1,
        0
      ],
      "children": [
        4,
        13
      ],
      "name": "root"
    }
  ],
  "scene": 0,
  "scenes": [
    {
      "name": "Scene",
      "nodes": [
        14
      ]
    }
  ],
  "textures": [
    {
      "source": 0
    },
    {
      "source": 1
    },
    {
      "source": 2
    },
    {
      "source": 3
    },
    {
      "source": 4
    },
    {
      "source": 5
    }
  ]
}